# xmcd
#
# Track frame offsets:
# 150
# 3975
# 28252
# 47760
# 65165
# 87602
# 108740
# 127675
# 145145
# 175937
# 177855
# 198910
# 224277
# 246302
#
# Disc length: 3569 seconds
#
# Revision: 5
# Processed by: cddbd v1.4PL0 Copyright (c) Steve Scherf et al.
# Submitted via: Axialis_AX_CDPlayer 2.6
#
DISCID=cc0def0e
DTITLE=Brent Jones and the T.P. Mobb - Brent Jones And The T.P. Mobb
DYEAR=1900
DGENRE=
TTITLE0=Intro
TTITLE1=GoodTime
TTITLE2=Crazy
TTITLE3=Sit Back And Ride
TTITLE4=Much Love For You
TTITLE5=You Can Make It
TTITLE6=I Can't Handle It By Myself
TTITLE7=Slow Jam (Interlude)
TTITLE8=Pray
TTITLE9=Sindy (Interlude)
TTITLE10=Sindy
TTITLE11=Rough Edges
TTITLE12=Thank You
TTITLE13=Money Ain't Everything
EXTD=Entered by Slice!! in Detroit
EXTT0=
EXTT1=
EXTT2=
EXTT3=
EXTT4=
EXTT5=
EXTT6=
EXTT7=
EXTT8=
EXTT9=
EXTT10=
EXTT11=
EXTT12=
EXTT13=
PLAYORDER=
